<svg width="131" height="32" viewBox="0 0 131 32" fill="none" xmlns="http://www.w3.org/2000/svg">
<path d="M1.85227 9.58807V6.54545H16.1875V9.58807H10.8438V24H7.19602V9.58807H1.85227ZM18.4801 24V10.9091H22.1108V24H18.4801ZM20.304 9.22159C19.7642 9.22159 19.3011 9.04261 18.9148 8.68466C18.5341 8.32102 18.3438 7.88636 18.3438 7.38068C18.3438 6.88068 18.5341 6.4517 18.9148 6.09375C19.3011 5.73011 19.7642 5.54829 20.304 5.54829C20.8438 5.54829 21.304 5.73011 21.6847 6.09375C22.071 6.4517 22.2642 6.88068 22.2642 7.38068C22.2642 7.88636 22.071 8.32102 21.6847 8.68466C21.304 9.04261 20.8438 9.22159 20.304 9.22159ZM28.6499 16.4318V24H25.0192V10.9091H28.4794V13.2188H28.6328C28.9226 12.4574 29.4084 11.8551 30.0902 11.4119C30.772 10.9631 31.5987 10.7386 32.5703 10.7386C33.4794 10.7386 34.272 10.9375 34.9482 11.3352C35.6243 11.733 36.1499 12.3011 36.5249 13.0398C36.8999 13.7727 37.0874 14.6477 37.0874 15.6648V24H33.4567V16.3125C33.4624 15.5114 33.2578 14.8864 32.843 14.4375C32.4283 13.983 31.8572 13.7557 31.13 13.7557C30.6413 13.7557 30.2095 13.8608 29.8345 14.071C29.4652 14.2812 29.1754 14.5881 28.9652 14.9915C28.7607 15.3892 28.6555 15.8693 28.6499 16.4318ZM41.7216 28.9091C41.2614 28.9091 40.8295 28.8722 40.4261 28.7983C40.0284 28.7301 39.6989 28.642 39.4375 28.5341L40.2557 25.8239C40.6818 25.9545 41.0653 26.0256 41.4062 26.0369C41.7528 26.0483 42.0511 25.9688 42.3011 25.7983C42.5568 25.6278 42.7642 25.3381 42.9233 24.929L43.1364 24.375L38.4403 10.9091H42.2585L44.9688 20.5227H45.1051L47.8409 10.9091H51.6847L46.5966 25.4148C46.3523 26.1193 46.0199 26.733 45.5994 27.2557C45.1847 27.7841 44.6591 28.1903 44.0227 28.4744C43.3864 28.7642 42.6193 28.9091 41.7216 28.9091Z" fill="#9F8787"/>
<path d="M53.6108 24V6.54545H60.5994C61.8835 6.54545 62.9545 6.7358 63.8125 7.11648C64.6705 7.49716 65.3153 8.02557 65.7472 8.7017C66.179 9.37216 66.3949 10.1449 66.3949 11.0199C66.3949 11.7017 66.2585 12.3011 65.9858 12.8182C65.7131 13.3295 65.3381 13.75 64.8608 14.0795C64.3892 14.4034 63.8494 14.6335 63.2415 14.7699V14.9403C63.9063 14.9687 64.5284 15.1562 65.108 15.5028C65.6932 15.8494 66.1676 16.3352 66.5312 16.9602C66.8949 17.5795 67.0767 18.3182 67.0767 19.1761C67.0767 20.1023 66.8466 20.929 66.3864 21.6562C65.9318 22.3778 65.2585 22.9489 64.3665 23.3693C63.4744 23.7898 62.375 24 61.0682 24H53.6108ZM57.3011 20.983H60.3097C61.3381 20.983 62.0881 20.7869 62.5597 20.3949C63.0313 19.9972 63.267 19.4687 63.267 18.8097C63.267 18.3267 63.1506 17.9006 62.9176 17.5312C62.6847 17.1619 62.3523 16.8722 61.9205 16.6619C61.4943 16.4517 60.9858 16.3466 60.3949 16.3466H57.3011V20.983ZM57.3011 13.8494H60.0369C60.5426 13.8494 60.9915 13.7614 61.3835 13.5852C61.7813 13.4034 62.0938 13.1477 62.321 12.8182C62.554 12.4886 62.6705 12.0938 62.6705 11.6335C62.6705 11.0028 62.446 10.4943 61.9972 10.108C61.554 9.72159 60.9233 9.52841 60.1051 9.52841H57.3011V13.8494ZM77.8047 18.4261V10.9091H81.4354V24H77.9496V21.6222H77.8132C77.5178 22.3892 77.0263 23.0057 76.3388 23.4716C75.657 23.9375 74.8246 24.1705 73.8416 24.1705C72.9666 24.1705 72.1967 23.9716 71.532 23.5739C70.8672 23.1761 70.3473 22.6108 69.9723 21.8778C69.603 21.1449 69.4155 20.267 69.4098 19.2443V10.9091H73.0405V18.5966C73.0462 19.3693 73.2536 19.9801 73.6626 20.429C74.0717 20.8778 74.62 21.1023 75.3075 21.1023C75.745 21.1023 76.1541 21.0028 76.5348 20.804C76.9155 20.5994 77.2223 20.2983 77.4553 19.9006C77.6939 19.5028 77.8104 19.0114 77.8047 18.4261ZM95.2315 14.642L91.9077 14.8466C91.8509 14.5625 91.7287 14.3068 91.5412 14.0795C91.3537 13.8466 91.1065 13.6619 90.7997 13.5256C90.4986 13.3835 90.1378 13.3125 89.7173 13.3125C89.1548 13.3125 88.6804 13.4318 88.294 13.6705C87.9077 13.9034 87.7145 14.2159 87.7145 14.608C87.7145 14.9205 87.8395 15.1847 88.0895 15.4006C88.3395 15.6165 88.7685 15.7898 89.3764 15.9205L91.7457 16.3977C93.0185 16.6591 93.9673 17.0795 94.5923 17.6591C95.2173 18.2386 95.5298 19 95.5298 19.9432C95.5298 20.8011 95.277 21.554 94.7713 22.2017C94.2713 22.8494 93.5838 23.3551 92.7088 23.7188C91.8395 24.0767 90.8366 24.2557 89.7003 24.2557C87.9673 24.2557 86.5866 23.8949 85.5582 23.1733C84.5355 22.446 83.9361 21.4574 83.7599 20.2074L87.331 20.0199C87.4389 20.5483 87.7003 20.9517 88.1151 21.2301C88.5298 21.5028 89.0611 21.6392 89.7088 21.6392C90.3452 21.6392 90.8565 21.517 91.2429 21.2727C91.6349 21.0227 91.8338 20.7017 91.8395 20.3097C91.8338 19.9801 91.6946 19.7102 91.4219 19.5C91.1491 19.2841 90.7287 19.1193 90.1605 19.0057L87.8935 18.554C86.6151 18.2983 85.6634 17.8551 85.0384 17.2244C84.419 16.5937 84.1094 15.7898 84.1094 14.8125C84.1094 13.9716 84.3366 13.2472 84.7912 12.6392C85.2514 12.0312 85.8963 11.5625 86.7259 11.233C87.5611 10.9034 88.5384 10.7386 89.6577 10.7386C91.3111 10.7386 92.6122 11.0881 93.5611 11.7869C94.5156 12.4858 95.0724 13.4375 95.2315 14.642Z" fill="#FF0A0A"/>
<g clip-path="url(#clip0_8_9)">
<path d="M126.688 9H126.25V6.375C126.25 3.925 120.825 2 114 2C107.175 2 101.75 3.925 101.75 6.375V9H101.312C100.588 9 100 9.58734 100 10.3125V14.6875C100 15.4121 100.588 16 101.312 16H101.75V24.75C101.75 25.7163 102.534 26.5 103.5 26.5V28.25C103.5 29.2163 104.284 30 105.25 30H107C107.966 30 108.75 29.2163 108.75 28.25V26.5H119.25V28.25C119.25 29.2163 120.034 30 121 30H122.75C123.716 30 124.5 29.2163 124.5 28.25V26.5H124.85C125.725 26.5 126.25 25.8 126.25 25.1V16H126.688C127.412 16 128 15.4121 128 14.6875V10.3125C128 9.58734 127.412 9 126.688 9ZM106.125 23.875C105.159 23.875 104.375 23.0913 104.375 22.125C104.375 21.1587 105.159 20.375 106.125 20.375C107.091 20.375 107.875 21.1587 107.875 22.125C107.875 23.0913 107.091 23.875 106.125 23.875ZM107 17.75C106.034 17.75 105.25 16.9663 105.25 16V9C105.25 8.03367 106.034 7.25 107 7.25H121C121.966 7.25 122.75 8.03367 122.75 9V16C122.75 16.9663 121.966 17.75 121 17.75H107ZM121.875 23.875C120.909 23.875 120.125 23.0913 120.125 22.125C120.125 21.1587 120.909 20.375 121.875 20.375C122.841 20.375 123.625 21.1587 123.625 22.125C123.625 23.0913 122.841 23.875 121.875 23.875Z" fill="#FF0A0A"/>
</g>
<defs>
<clipPath id="clip0_8_9">
<rect width="28" height="28" fill="white" transform="translate(100 2)"/>
</clipPath>
</defs>
</svg>
